<?xml version="1.0" encoding="utf-8"?>
<!-- Generator: Adobe Illustrator 17.1.0, SVG Export Plug-In . SVG Version: 6.00 Build 0)  -->
<!DOCTYPE svg PUBLIC "-//W3C//DTD SVG 1.1//EN" "http://www.w3.org/Graphics/SVG/1.1/DTD/svg11.dtd">
<svg version="1.1" id="Calque_1" xmlns="http://www.w3.org/2000/svg" xmlns:xlink="http://www.w3.org/1999/xlink" x="0px" y="0px"
	 viewBox="0 0 75 75" enable-background="new 0 0 75 75" xml:space="preserve">
<circle fill="#F7F7F7" stroke="#5E5B59" stroke-width="2.5" stroke-miterlimit="10" cx="37.5" cy="37.5" r="35.3"/>
<g>
	<path fill="#D22827" d="M37.5,50.8c-4.1,0-7.6-1.2-10.5-3.6c-2.9-2.4-4.4-5.7-4.4-9.8c0-4.1,1.5-7.4,4.4-9.9
		c2.9-2.5,6.4-3.8,10.5-3.8c3.6,0,6,0.9,7.1,2.8v-1.9H52L52,43.1v0.1c0,1.3,0.2,1.9,0.6,1.9c0.3,0,0.8-0.4,1.5-1.3
		c1.4-2,2.1-5.1,2.1-9.3s-1.6-7.8-4.7-11c-3.2-3.1-7.8-4.7-13.9-4.7c-6.1,0-10.7,1.6-13.9,4.7c-3.1,3.1-4.7,7.5-4.7,13.2
		c0,5.6,1.8,10.3,5.4,13.9c3.6,3.6,8,5.4,13.1,5.4c3.5,0,6.5-0.8,9.1-2.4l5.3,5.6c-4.8,2.8-9.6,4.2-14.4,4.2
		c-7.2,0-13.3-2.6-18.4-7.7c-5.1-5.1-7.7-11.2-7.7-18.4c0-7.2,2.6-13.3,7.7-18.4c5.1-5.1,11.3-7.7,18.4-7.7c7.2,0,13.4,2.6,18.4,7.7
		c5.1,5.1,7.6,10.3,7.6,15.6c0,5.3-1.4,9.5-4.1,12.8c-2.2,2.7-4.7,4-7.4,4c-0.6,0-1.2-0.1-1.8-0.2c-3.5-0.7-5.3-1.9-5.6-3.5
		C43.3,49.8,40.9,50.8,37.5,50.8z M44.7,39.5v-4c-0.2-1.1-0.9-2.2-1.9-3.2c-1.4-1.4-3.2-2.2-5.2-2.2c-2,0-3.7,0.7-5.2,2.2
		c-1.4,1.4-2.1,3.2-2.1,5.2c0,2,0.7,3.8,2.1,5.2c1.4,1.4,3.1,2.1,5.2,2.1c2,0,3.8-0.7,5.2-2.1C43.8,41.6,44.4,40.6,44.7,39.5z"/>
</g>
</svg>
