<?xml version="1.0" encoding="utf-8"?>
<!-- Generator: Adobe Illustrator 17.1.0, SVG Export Plug-In . SVG Version: 6.00 Build 0)  -->
<!DOCTYPE svg PUBLIC "-//W3C//DTD SVG 1.1//EN" "http://www.w3.org/Graphics/SVG/1.1/DTD/svg11.dtd">
<svg version="1.1" id="Calque_1" xmlns="http://www.w3.org/2000/svg" xmlns:xlink="http://www.w3.org/1999/xlink" x="0px" y="0px"
	 viewBox="0 0 75 75" enable-background="new 0 0 75 75" xml:space="preserve">
<circle fill="#F7F7F7" stroke="#5E5B59" stroke-width="2.5" stroke-miterlimit="10" cx="37.5" cy="37.5" r="35.3"/>
<g>
	<g>
		<path fill="#D22827" d="M52.3,16.3c3.4,4.5,5.4,8.9,5.8,13.1c0.7,6.5-1.3,13-6.1,19.8C47.3,55.9,41.8,60,35.4,61.5
			c-4.1,1-8.9,0.6-14.3-1.1l3.4-4.8c3.4,0.7,6.5,0.7,9.3,0c4.8-1.1,9.2-4.5,13.1-10c3.9-5.5,5.6-10.7,5-15.6
			c-0.3-2.9-1.4-5.8-3.2-8.7L52.3,16.3z"/>
	</g>
	
		<rect x="20.6" y="44.4" transform="matrix(0.8322 0.5544 -0.5544 0.8322 33.9117 -4.8076)" fill="#D22827" width="8.5" height="18.5"/>
	
		<rect x="43" y="11.3" transform="matrix(0.8323 0.5544 -0.5544 0.8323 19.3086 -22.7302)" fill="#D22827" width="8.5" height="18.5"/>
</g>
</svg>
