<?xml version="1.0" encoding="iso-8859-1"?>
<!-- Generator: Adobe Illustrator 17.1.0, SVG Export Plug-In . SVG Version: 6.00 Build 0)  -->
<!DOCTYPE svg PUBLIC "-//W3C//DTD SVG 1.1//EN" "http://www.w3.org/Graphics/SVG/1.1/DTD/svg11.dtd">
<svg version="1.1" xmlns="http://www.w3.org/2000/svg" xmlns:xlink="http://www.w3.org/1999/xlink" x="0px" y="0px"
	 viewBox="0 0 200 200" style="enable-background:new 0 0 200 200;" xml:space="preserve">
<g id="Calque_2" style="display:none;">
	
		<image style="display:inline;overflow:visible;opacity:0.5;" width="225" height="225" xlink:href="9CFB4699.jpg"  transform="matrix(1 0 0 1 -12 -13)">
	</image>
</g>
<g id="Calque_1">
	<g>
		<circle style="fill:#F7F7F7;stroke:#251D18;stroke-width:8.505;stroke-miterlimit:10;" cx="100.501" cy="110.15" r="85.33"/>
		<g>
			<path style="fill:#251D18;" d="M70.579,86.461c0,0,4.137,1,10.245-1.339c0,0,3.106-18.779-2.803-33.818
				c0,0-5.149,0.174-7.937,0.254C70.085,51.557,79.348,71.123,70.579,86.461z"/>
			<path style="fill:#251D18;" d="M90.083,148.431c-7.291,8.811-19.866-27.973-19.866-27.973S57.98,83.561,69.116,86.167
				c0,0,8.319-15.622-0.608-34.458c0,0,0,0-10.389,3.498c0,0-13.303,34.371-1.959,69.985c12.51,35.222,43.895,54.544,43.895,54.544
				c10.389-3.498,10.389-3.498,10.389-3.498C105.871,154.985,90.083,148.431,90.083,148.431z"/>
			<path style="fill:#251D18;" d="M100.039,142.18c-6.279,1.833-8.968,5.131-8.968,5.131c16.26,6.909,20.719,28.093,20.719,28.093
				c2.268-1.623,6.473-4.599,6.473-4.599C113.871,155.255,100.039,142.18,100.039,142.18z"/>
		</g>
	</g>
</g>
</svg>
