<?xml version="1.0" encoding="utf-8"?>
<!-- Generator: Adobe Illustrator 16.0.0, SVG Export Plug-In . SVG Version: 6.00 Build 0)  -->
<!DOCTYPE svg PUBLIC "-//W3C//DTD SVG 1.1//EN" "http://www.w3.org/Graphics/SVG/1.1/DTD/svg11.dtd">
<svg version="1.1" id="Calque_1" xmlns="http://www.w3.org/2000/svg" xmlns:xlink="http://www.w3.org/1999/xlink" x="0px" y="0px"
	 width="119.718px" height="118.099px" viewBox="0 0 119.718 118.099" enable-background="new 0 0 119.718 118.099"
	 xml:space="preserve">
<circle fill="#F7F7F7" stroke="#5E5B59" stroke-width="5" stroke-miterlimit="10" cx="56.108" cy="58.506" r="52.392"/>
<g>
	<path fill="#5E5B59" d="M29.018,56.712L51.625,73.76l47.453-62.126c2.613-3.733,7.76-4.64,11.492-2.026l0.627,0.462
		c3.732,2.614,4.641,7.759,2.025,11.492l-51.781,79.771c-1.955,2.791-3.896,3.762-7.303,3.987c-3.404,0.226-5.463-1.039-7.508-3.084
		l-29.467-33.69c-3.262-3.262-3.262-8.553,0-11.814l0.041-0.019C20.467,53.448,25.756,53.448,29.018,56.712z"/>
	<path fill="#5E5B59" d="M53.375,106.346c-3.558,0-5.684-1.636-7.451-3.403L16.411,69.203c-3.602-3.599-3.602-9.533,0.046-13.18
		l0.175-0.149c1.75-1.685,4.044-2.61,6.479-2.61c2.475,0,4.802,0.955,6.562,2.69l21.76,16.409l46.85-61.337
		c1.705-2.437,4.541-3.912,7.562-3.912c1.903,0,3.735,0.579,5.299,1.674l0.646,0.476c2.005,1.404,3.356,3.525,3.785,5.958
		c0.429,2.434-0.115,4.889-1.533,6.913L62.28,101.877c-2.097,2.993-4.279,4.188-8.075,4.44
		C53.92,106.336,53.643,106.346,53.375,106.346z M17.748,57.564c-2.743,2.876-2.702,7.449,0.123,10.274l29.513,33.739
		c1.784,1.78,3.619,2.961,6.688,2.744c3.219-0.213,4.81-1.079,6.55-3.563l51.762-79.741c1.131-1.616,1.558-3.54,1.222-5.448
		c-0.336-1.907-1.396-3.57-2.981-4.681l-0.646-0.476c-1.207-0.844-2.643-1.298-4.133-1.298c-2.368,0-4.592,1.156-5.947,3.093
		L51.816,75.156L28.311,57.419c-1.389-1.39-3.235-2.155-5.199-2.155s-3.811,0.765-5.199,2.155L17.748,57.564z"/>
</g>
</svg>
