<?xml version="1.0" encoding="iso-8859-1"?>
<!-- Generator: Adobe Illustrator 17.1.0, SVG Export Plug-In . SVG Version: 6.00 Build 0)  -->
<!DOCTYPE svg PUBLIC "-//W3C//DTD SVG 1.1//EN" "http://www.w3.org/Graphics/SVG/1.1/DTD/svg11.dtd">
<svg version="1.1" id="Calque_2" xmlns="http://www.w3.org/2000/svg" xmlns:xlink="http://www.w3.org/1999/xlink" x="0px" y="0px"
	 viewBox="0 0 108 108" style="enable-background:new 0 0 108 108;" xml:space="preserve">
<g>
	<g>
		<path style="fill:#5E5B59;" d="M114.64,107.492c0-35.093,21.938-63.541,49-63.541s49,28.448,49,63.541"/>
		<path style="fill:#F2F2F2;" d="M114.64,107.492c0,0-0.005-0.694-0.015-1.994c-0.008-0.65-0.017-1.452,0.026-2.396
			c0.034-0.943,0.044-2.033,0.159-3.244c0.147-2.43,0.514-5.367,1.096-8.714c0.595-3.344,1.521-7.082,2.916-11.037
			c1.379-3.959,3.249-8.129,5.703-12.281c2.434-4.159,5.516-8.274,9.301-11.971c1.903-1.836,3.975-3.561,6.199-5.141
			c2.229-1.574,4.646-2.941,7.181-4.106c5.077-2.364,10.715-3.589,16.468-3.656c2.727,0.022,5.69,0.355,8.418,0.967
			c2.768,0.6,5.451,1.518,7.985,2.687c2.535,1.165,4.952,2.532,7.181,4.106c2.224,1.58,4.296,3.306,6.199,5.141
			c3.784,3.697,6.871,7.809,9.303,11.97c2.454,4.152,4.323,8.322,5.702,12.282c1.394,3.955,2.322,7.693,2.916,11.038
			c0.582,3.347,0.948,6.284,1.095,8.714c0.115,1.211,0.125,2.299,0.159,3.242c0.042,0.943,0.034,1.746,0.025,2.397
			c-0.01,1.301-0.015,1.995-0.015,1.995s-0.032-0.693-0.093-1.992c-0.044-1.298-0.204-3.2-0.463-5.607
			c-0.244-2.409-0.728-5.313-1.437-8.601c-0.729-3.285-1.797-6.933-3.243-10.8c-1.453-3.864-3.393-7.913-5.891-11.91
			c-2.478-4.01-5.597-7.91-9.26-11.479c-1.856-1.761-3.87-3.408-6.021-4.912c-2.157-1.497-4.487-2.787-6.919-3.882
			c-2.432-1.099-4.997-1.952-7.634-2.501c-2.67-0.563-5.246-0.843-8.069-0.859c-5.334,0.025-10.792,1.135-15.638,3.358
			c-2.433,1.095-4.762,2.385-6.92,3.882c-2.152,1.503-4.166,3.151-6.022,4.912c-3.663,3.569-6.786,7.467-9.262,11.479
			c-2.499,3.998-4.438,8.048-5.891,11.911c-1.446,3.867-2.516,7.514-3.243,10.8c-0.709,3.288-1.192,6.192-1.436,8.602
			c-0.259,2.406-0.42,4.305-0.463,5.606C114.672,106.799,114.64,107.492,114.64,107.492z"/>
	</g>
	<g>
		<ellipse style="fill:#5E5B59;" cx="163.64" cy="33.887" rx="25.275" ry="25.252"/>
		<path style="fill:#F2F2F2;" d="M163.641,8.586c0,0,0.62,0.03,1.781,0.085c0.582,0.001,1.294,0.101,2.129,0.236
			c0.417,0.069,0.871,0.115,1.344,0.217c0.469,0.119,0.968,0.246,1.495,0.38c2.084,0.585,4.606,1.501,7.135,3.19
			c2.529,1.66,5.125,3.991,7.241,7.083c2.091,3.096,3.659,6.953,4.201,11.225c0.088,0.531,0.078,1.075,0.122,1.618
			c0.014,0.548,0.102,1.083,0.055,1.652c-0.065,1.093-0.051,2.195-0.268,3.321c-0.265,2.264-0.975,4.478-1.88,6.645
			c-0.927,2.166-2.247,4.183-3.756,6.073c-1.558,1.859-3.411,3.491-5.443,4.901c-2.063,1.372-4.345,2.424-6.728,3.198
			c-2.413,0.728-4.894,1.063-7.452,1.129c-2.449-0.043-5.028-0.359-7.43-1.069c-2.395-0.755-4.695-1.791-6.78-3.153
			c-2.052-1.4-3.937-3.022-5.51-4.892c-1.527-1.897-2.866-3.924-3.809-6.104c-0.921-2.177-1.647-4.419-1.922-6.687
			c-0.222-1.123-0.215-2.256-0.285-3.368c-0.048-0.611,0.042-1.106,0.056-1.66c0.045-0.541,0.035-1.069,0.124-1.611
			c0.556-4.354,2.138-8.222,4.28-11.331c2.154-3.104,4.793-5.42,7.354-7.054c2.563-1.659,5.093-2.559,7.181-3.139
			c0.528-0.131,1.028-0.256,1.499-0.373c0.474-0.1,0.928-0.143,1.345-0.21c0.836-0.131,1.547-0.228,2.132-0.226
			C163.019,8.612,163.641,8.586,163.641,8.586z M163.639,8.686c0,0-0.616,0.036-1.774,0.103c-0.581,0.007-1.288,0.114-2.116,0.257
			c-0.413,0.073-0.863,0.123-1.332,0.229c-0.465,0.123-0.96,0.254-1.482,0.393c-2.065,0.599-4.557,1.539-7.027,3.261
			c-2.475,1.683-4.991,4.033-6.993,7.117c-1.971,3.079-3.445,6.893-3.902,11.013c-0.417,4.192,0.132,8.679,1.988,12.858
			c0.905,2.096,2.192,4.045,3.659,5.871c1.519,1.791,3.305,3.378,5.272,4.745c1.996,1.331,4.205,2.35,6.511,3.104
			c2.34,0.707,4.71,1.03,7.219,1.103c2.4-0.05,4.867-0.354,7.197-1.043c2.318-0.735,4.545-1.739,6.563-3.059
			c1.987-1.357,3.805-2.934,5.339-4.735c1.485-1.833,2.79-3.792,3.711-5.901c0.898-2.104,1.615-4.285,1.886-6.47
			c0.221-1.075,0.217-2.197,0.29-3.285c0.048-0.522-0.027-1.073-0.034-1.603c-0.036-0.533-0.018-1.068-0.097-1.59
			c-0.471-4.202-1.958-8.026-3.981-11.119c-2.039-3.096-4.6-5.432-7.106-7.088c-2.502-1.691-5.003-2.615-7.073-3.209
			c-0.524-0.136-1.019-0.265-1.485-0.386c-0.47-0.104-0.92-0.151-1.333-0.223c-0.828-0.139-1.535-0.243-2.119-0.247
			C164.256,8.719,163.639,8.686,163.639,8.686z"/>
	</g>
</g>
<g>
	<path style="fill:#5E5B59;" d="M98.991-39h-6.113C90.397-39,87-36.288,87-33.812v1.997c0,1.66,0.374,2.777-0.253,3.318
		c-0.618,0.533-1.475,0.859-3.08,0.939c3.071-5.86,5.679-12.117,7.297-18.033c0.021-0.022,0.131-0.042,0.151-0.064
		c4.475-4.823,5.904-16.74,6.073-18.387c0.171-0.172,0.718-0.54,1.827-0.885c0.998-0.311,1.683-1.239,1.67-2.282l-0.065-5.585
		c-0.002-0.14-0.017-0.278-0.043-0.415c4.569-3.766,7.484-9.463,7.484-15.839c0-3.946-1.117-7.63-3.05-10.759
		c-1.253,2.417-3.777,4.073-6.693,4.073c-4.163,0-7.536-3.367-7.536-7.522c0-2.182,0.936-4.14,2.423-5.514
		c-1.815-0.523-3.731-0.809-5.715-0.809c-9.611,0-17.681,6.578-19.941,15.468c-4.102-1.353-8.519-2.095-13.125-2.095
		c-4.633,0-9.076,0.75-13.198,2.118c-2.251-8.902-10.327-15.491-19.946-15.491c-11.362,0-20.572,9.192-20.572,20.531
		c0,6.505,3.034,12.298,7.763,16.06c-0.092,0.249-0.146,0.512-0.15,0.78l-0.074,5.29c-0.015,1.044,0.66,1.974,1.659,2.285
		c1.155,0.36,1.631,0.665,1.804,0.802c0.196,1.856,1.594,13.456,6,18.238c1.616,5.907,4.045,12.155,7.111,18.008
		c-1.774-0.139-2.564-0.561-2.888-0.831C21.17-29.054,21-30.617,21-31.815v-1.997C21-36.288,19.007-39,16.526-39h-6.113
		C7.932-39,6-36.288,6-33.812v2.329c0,12.878,7.083,20.566,19.012,20.566c3.331,0,6.477-0.452,9.539-0.889l0.301-0.044
		c0.297-0.042,0.587-0.084,0.881-0.126c5.55,5.773,11.918,9.536,18.693,9.536c6.777,0,13.147-3.765,18.699-9.54
		c0.289,0.042,0.577,0.085,0.869,0.128c3.461,0.512,6.343,0.936,9.53,0.936c12.532,0,19.477-7.496,19.477-20.566v-2.329
		C103-36.288,101.472-39,98.991-39z"/>
	<path style="fill:#F7F7F7;" d="M92-34v2.185c0,6.211-3.006,8.762-9.23,8.762c-2.668,0-5.004-0.333-7.783-0.776
		c-2.667-0.444-5.336-0.777-8.337-0.777c-0.437-0.007-0.805-0.001-1.217,0.016c0.375-0.185,0.783-0.356,1.175-0.498
		c6.924-2.495,12.643-2.262,17.4-0.825l-0.946-2.635c-4.084-1.248-9.902-2.041-17.452,0.635c-2.181,0.786-4.053,1.717-5.682,2.726
		c1.593-1.504,3.486-2.933,5.76-4.239c6.38-3.664,12.039-4.431,16.974-3.846l-1.4-2.428c-4.239-0.516-10.11-0.282-17.075,3.671
		c-4.905,2.817-7.9,6.159-9.815,9.26c-1.922-3.01-4.882-6.224-9.622-8.945c-6.965-3.953-12.836-4.187-17.075-3.671l-1.399,2.428
		c4.935-0.584,10.593,0.182,16.974,3.846c2.275,1.306,4.167,2.735,5.76,4.239c-1.629-1.01-3.503-1.941-5.684-2.726
		c-7.55-2.676-13.372-1.882-17.455-0.635l-0.953,2.635c4.757-1.437,10.462-1.669,17.386,0.825c0.142,0.051,0.28,0.114,0.419,0.171
		c-0.103,0-0.199-0.006-0.304-0.004c-3.001,0-5.668,0.333-8.446,0.777c-2.667,0.443-5.598,0.776-8.154,0.776
		c-6.001,0-9.821-2.218-9.821-8.762V-34h-5v2.518C11-22.055,15.041-15.4,25.266-15.4c3.112,0,5.966-0.443,9.078-0.887
		c3.112-0.443,6.15-0.792,9.262-0.792c3.89,0,8.151,1.079,8.151,9.079h5.668c0-8,4.779-9.079,8.224-9.079
		c3.001,0,6.001,0.396,9.002,0.84c3.001,0.444,6.117,0.864,9.118,0.864c11.225,0,15.231-6.9,15.231-16.106V-34H92z"/>
	<path style="fill:#F7F7F7;" d="M98.261-72.765c-3.625-5.192-29.234-7.773-34.203-5.063C59.089-75.119,57.954-72,56.647-70h-4.345
		c-1.307-2-2.444-5.119-7.413-7.828c-4.969-2.709-30.58-0.263-34.205,4.929l-0.074,5.653c2.04,0.636,3.355,1.646,3.433,2.826
		c0.079,1.18,1.468,12.898,5.409,17.146c5.543,5.882,17.912,6.449,23.114,2.988c9.301-6.607,7.094-18.723,11.626-18.723
		c0.057,0,0.108,0.012,0.163,0.016c0.473-0.003,0.224-0.012,0.281-0.012c4.533,0,2.384,12.12,11.686,18.727
		c5.202,3.461,17.601,2.903,23.144-2.979c3.941-4.248,5.344-15.949,5.424-17.129c0.079-1.18,1.4-2.156,3.441-2.792L98.261-72.765z
		 M45.918-51.211c-3.855,6.009-5.675,6.529-12.454,6.765c-6.778,0.236-16.625-2.577-16.553-17.227
		c0.186-6.464,1.619-11.878,6.306-13.294c4.687-1.416,11.429-1.495,16.789-1.023c5.36,0.472,8.591,5.27,8.591,7.08
		C48.597-68.023,49.627-56.995,45.918-51.211z M75.486-44.446c-6.779-0.236-8.6-0.756-12.454-6.765
		c-3.71-5.784-2.68-16.812-2.68-17.699c0-1.809,3.232-6.608,8.591-7.08c5.36-0.472,12.102-0.393,16.789,1.023
		c4.687,1.416,6.12,6.83,6.306,13.294C92.111-47.023,82.264-44.21,75.486-44.446z"/>
</g>
<g style="opacity:0.5;">
	<path style="fill:#5E5B59;" d="M96.395,184.585l-23.511-23.511c2.3-4.501,3.606-9.594,3.606-14.994
		c0-18.243-14.803-33.032-33.062-33.032s-33.063,14.789-33.063,33.032c0,18.243,14.803,33.032,33.063,33.032
		c6.19,0,11.98-1.704,16.934-4.661l23.084,23.084c2.579,2.579,8.877,3.079,12.453-0.497
		C99.474,193.462,98.974,187.164,96.395,184.585z M43.427,162.596c-9.13,0-16.531-7.394-16.531-16.516
		c0-9.121,7.401-16.516,16.531-16.516c9.13,0,16.531,7.394,16.531,16.516C59.958,155.201,52.557,162.596,43.427,162.596z"/>
	<g>
		<path style="fill:#F2F2F2;" d="M96.355,184.625l-11.811-11.7l-11.891-11.62l-0.164-0.16l0.104-0.218
			c1.685-3.527,2.738-7.306,3.233-11.159c0.375-3.86,0.115-7.823-0.836-11.552c-1.821-7.538-6.459-14.368-12.823-18.863
			c-3.171-2.257-6.75-3.945-10.52-4.953c-3.783-1.018-7.699-1.339-11.636-0.976c-3.874,0.41-7.72,1.485-11.205,3.264
			c-3.495,1.762-6.667,4.15-9.326,7.013c-2.661,2.861-4.808,6.195-6.305,9.8c-1.501,3.607-2.267,7.497-2.376,11.383
			c-0.01,0.479-0.069,0.989-0.038,1.442l0.085,1.474l0.085,1.474c0.045,0.487,0.145,0.957,0.215,1.436
			c0.247,1.911,0.759,3.802,1.356,5.644c1.24,3.677,3.14,7.134,5.602,10.129c2.454,3.001,5.441,5.559,8.778,7.517
			c3.335,1.963,7.021,3.309,10.826,3.99c0.958,0.125,1.906,0.342,2.872,0.393l2.879,0.146c1.993-0.053,3.885-0.148,5.791-0.531
			c3.819-0.646,7.476-2.09,10.822-4.028l0.381-0.221l0.302,0.305l10.519,10.648l10.463,10.704l1.306,1.34
			c0.214,0.216,0.444,0.463,0.646,0.652c0.233,0.206,0.462,0.431,0.706,0.577c0.969,0.674,2.157,1.102,3.358,1.288
			c2.404,0.381,5-0.058,7.027-1.465c1.003-0.702,1.843-1.654,2.428-2.729c0.592-1.08,0.948-2.286,1.087-3.514
			c0.136-1.228,0.066-2.484-0.238-3.685C97.749,186.678,97.208,185.523,96.355,184.625z M96.434,184.546
			c0.88,0.91,1.44,2.081,1.766,3.29c0.32,1.216,0.403,2.49,0.276,3.74c-0.129,1.25-0.48,2.484-1.077,3.597
			c-0.597,1.119-1.441,2.091-2.472,2.83c-2.06,1.493-4.724,2.016-7.235,1.677c-1.262-0.171-2.497-0.569-3.596-1.296
			c-0.293-0.176-0.514-0.386-0.754-0.588c-0.257-0.232-0.456-0.44-0.686-0.661l-1.34-1.306l-10.704-10.463l-10.648-10.519
			l0.683,0.085c-3.455,2.014-7.238,3.517-11.191,4.197c-1.96,0.401-4.017,0.509-5.956,0.563l-3.02-0.142
			c-1-0.051-1.984-0.271-2.977-0.4c-7.898-1.409-15.194-5.774-20.204-12.015c-2.529-3.101-4.45-6.689-5.665-10.492
			c-0.588-1.905-1.085-3.841-1.315-5.841c-0.065-0.496-0.16-0.994-0.198-1.487l-0.064-1.475l-0.064-1.475
			c-0.026-0.53,0.041-1.004,0.058-1.508c0.164-3.973,1.011-7.928,2.579-11.584c1.561-3.656,3.776-7.022,6.504-9.898
			c2.726-2.878,5.963-5.264,9.513-7.011c3.557-1.733,7.384-2.908,11.346-3.335c3.908-0.382,7.955-0.102,11.792,0.847
			c3.851,0.954,7.534,2.607,10.819,4.859c3.276,2.255,6.201,5.074,8.449,8.381c2.267,3.288,3.94,6.985,4.908,10.86
			c0.961,3.914,1.163,7.911,0.741,11.891c-0.526,3.96-1.733,7.803-3.529,11.355l-0.06-0.377l11.62,11.891L96.434,184.546z"/>
		<path style="fill:#F2F2F2;" d="M43.426,162.651c0,0-0.406-0.018-1.166-0.053c-0.38,0-0.847-0.064-1.395-0.152
			c-0.273-0.046-0.572-0.072-0.883-0.134c-0.309-0.074-0.637-0.152-0.984-0.234c-1.369-0.374-3.051-0.909-4.752-1.986
			c-1.699-1.052-3.485-2.541-4.926-4.59c-1.435-2.043-2.472-4.645-2.781-7.499c-0.058-0.72-0.099-1.424-0.087-2.19
			c0.058-0.716,0.071-1.427,0.234-2.185c0.218-1.509,0.727-2.951,1.364-4.363c0.648-1.411,1.563-2.699,2.557-3.928
			c1.032-1.207,2.267-2.241,3.589-3.161c1.342-0.9,2.828-1.591,4.382-2.101c1.561-0.499,3.2-0.745,4.85-0.816
			c1.627-0.001,3.313,0.176,4.911,0.616c1.584,0.482,3.11,1.15,4.497,2.037c1.367,0.912,2.61,1.989,3.665,3.215
			c1.022,1.247,1.92,2.585,2.558,4.027c1.307,2.859,1.669,6.033,1.352,8.835c-0.338,2.922-1.429,5.467-2.857,7.526
			c-1.443,2.052-3.238,3.535-4.939,4.587c-1.703,1.076-3.386,1.612-4.756,1.984c-0.347,0.082-0.676,0.16-0.985,0.234
			c-0.311,0.061-0.609,0.087-0.882,0.132c-0.547,0.086-1.013,0.15-1.396,0.149C43.834,162.634,43.426,162.651,43.426,162.651z
			 M43.428,162.54c0,0,0.402-0.023,1.158-0.067c0.38-0.004,0.841-0.074,1.383-0.167c0.547-0.062,1.157-0.223,1.834-0.422
			c1.347-0.399,2.949-1.067,4.537-2.202c1.593-1.117,3.171-2.687,4.445-4.682c1.263-1.988,2.17-4.467,2.495-7.087
			c0.302-2.727-0.116-5.587-1.273-8.291c-0.571-1.355-1.39-2.618-2.326-3.806c-0.967-1.169-2.125-2.19-3.387-3.088
			c-1.282-0.875-2.705-1.551-4.196-2.055c-1.504-0.486-3.055-0.727-4.67-0.804c-1.592,0.006-3.19,0.177-4.731,0.605
			c-1.521,0.476-2.984,1.129-4.311,1.991c-1.306,0.889-2.473,1.953-3.463,3.141c-0.964,1.207-1.767,2.519-2.327,3.905
			c-0.543,1.382-0.967,2.814-1.099,4.215c-0.123,0.682-0.098,1.425-0.13,2.136c0.002,0.661,0.05,1.373,0.115,2.037
			c0.354,2.688,1.315,5.11,2.571,7.115c1.277,1.998,2.864,3.561,4.458,4.679c1.59,1.135,3.193,1.803,4.54,2.2
			c0.678,0.198,1.288,0.359,1.833,0.42c0.54,0.092,1.001,0.161,1.384,0.165C43.025,162.518,43.428,162.54,43.428,162.54z"/>
	</g>
</g>
<g>
	<polygon style="fill:#F7F7F7;" points="22.537,96.686 21.171,82.183 79.24,11.244 87.495,21.783 95.828,90.724 27.898,99.937 	"/>
	<path style="fill:#5E5B59;" d="M85.485,22.798l9.233,68.076L30.77,99.548c0,0-7.358,1.188-7.765-6.261
		c-0.089-1.631,0.766-3.034,1.847-3.903c0.008-0.006,0.003-0.108,0.011-0.114c1.325-0.525,2.464-0.463,2.464-0.463l0.078,0.105
		l61.298-8.314l-8.497-62.648l-0.859-6.335l-61.993,8.408c-3.812,0.517-6.272,4.548-5.977,7.281l-0.152,0.021l7.918,58.38
		l0.519,3.829l0.909,6.701c0,0,0.01,0.026,0.025,0.061c0.009,0.085,0.005,0.16,0.017,0.247c0.828,6.104,9.961,4.666,9.961,4.666
		l66.189-8.894L87.3,22.552L85.485,22.798z"/>
	<g>
		<line style="fill:#F2F2F2;" x1="28.627" y1="94.292" x2="90.349" y2="85.921"/>
		
			<rect x="28.225" y="87.428" transform="matrix(0.9909 -0.1344 0.1344 0.9909 -11.4623 8.7277)" style="fill:#5E5B59;" width="61.371" height="3.664"/>
	</g>
</g>
</svg>
