<?xml version="1.0" encoding="iso-8859-1"?>
<!-- Generator: Adobe Illustrator 17.1.0, SVG Export Plug-In . SVG Version: 6.00 Build 0)  -->
<!DOCTYPE svg PUBLIC "-//W3C//DTD SVG 1.1//EN" "http://www.w3.org/Graphics/SVG/1.1/DTD/svg11.dtd">
<svg version="1.1" id="Calque_1" xmlns="http://www.w3.org/2000/svg" xmlns:xlink="http://www.w3.org/1999/xlink" x="0px" y="0px"
	 viewBox="0 0 175 160" style="enable-background:new 0 0 175 160;" xml:space="preserve">
<g>
	<circle style="fill:#F7F7F7;stroke:#5E5B59;stroke-width:2.8;stroke-miterlimit:10;" cx="87.828" cy="80.397" r="50.448"/>
	<g id="Page_1_6_">
		<path id="Close_6_" style="fill:#5E5B59;" d="M56.391,53.289l2.912-3.098c1.709-1.709,4.479-1.709,6.187-0.001l22.456,17.444
			l20.182-18.145c1.708-1.708,4.478-1.708,6.187,0.001l3.85,4.022c1.708,1.708,1.709,4.479,0.001,6.187l-17.095,21.061l17.736,13.82
			c1.708,1.708,1.706,4.479-0.001,6.187l-10.029,9.985c-1.709,1.709-4.479,1.709-6.187,0.001L87.946,93.883L75.002,110.75
			c-1.708,1.708-4.478,1.708-6.187-0.001l-10.149-9.223c-1.708-1.708-1.71-4.479-0.001-6.187l16.156-14.581L56.39,59.475
			C54.682,57.767,54.683,54.996,56.391,53.289z"/>
	</g>
</g>
</svg>
