<?xml version="1.0" encoding="utf-8"?>
<!-- Generator: Adobe Illustrator 16.0.0, SVG Export Plug-In . SVG Version: 6.00 Build 0)  -->
<!DOCTYPE svg PUBLIC "-//W3C//DTD SVG 1.1//EN" "http://www.w3.org/Graphics/SVG/1.1/DTD/svg11.dtd">
<svg version="1.1" id="Calque_1" xmlns="http://www.w3.org/2000/svg" xmlns:xlink="http://www.w3.org/1999/xlink" x="0px" y="0px"
	 width="110px" height="110px" viewBox="0 0 110 110" enable-background="new 0 0 110 110" xml:space="preserve">
<circle fill="none" stroke="#41464B" stroke-width="2" stroke-miterlimit="10" cx="55.048" cy="55.048" r="53.048"/>
<path fill="#D76C70" d="M8.552,71.532v4.354c0,0.506,2.801,0.916,6.258,0.916h80.317c3.457,0,6.258-0.41,6.258-0.916v-4.354H8.552z"
	/>
<path fill="#D76C70" d="M88.335,26.149h-66.98c-2.882,0-5.219,1.857-5.219,4.147v40.891c0,2.291,2.336,4.146,5.219,4.146h66.98
	c2.883,0,5.219-1.855,5.219-4.146V30.296C93.554,28.006,91.218,26.149,88.335,26.149z M89.597,69.246
	c0,2.074-2.115,3.754-4.725,3.754H24.249c-2.609,0-4.723-1.68-4.723-3.754V32.237c0-2.073,2.114-3.754,4.723-3.754h60.623
	c2.609,0,4.725,1.681,4.725,3.754V69.246z"/>
<text transform="matrix(1 0 0 1 34.8843 63.2285)" fill="#41464B" font-family="'CaviarDreams'" font-size="47.6244">@</text>
<path fill="#41464B" d="M44.386,71.532v2.177c0,0.253,0.604,0.459,1.348,0.459h17.304c0.744,0,1.348-0.206,1.348-0.459v-2.177
	H44.386z"/>
</svg>
