<?xml version="1.0" encoding="utf-8"?>
<!-- Generator: Adobe Illustrator 16.0.0, SVG Export Plug-In . SVG Version: 6.00 Build 0)  -->
<!DOCTYPE svg PUBLIC "-//W3C//DTD SVG 1.1//EN" "http://www.w3.org/Graphics/SVG/1.1/DTD/svg11.dtd">
<svg version="1.1" id="Calque_1" xmlns="http://www.w3.org/2000/svg" xmlns:xlink="http://www.w3.org/1999/xlink" x="0px" y="0px"
	 width="109.165px" height="109.165px" viewBox="0 0 109.165 109.165" enable-background="new 0 0 109.165 109.165"
	 xml:space="preserve">
<circle fill="none" stroke="#41464B" stroke-width="2" stroke-miterlimit="10" cx="54.048" cy="54.048" r="53.048"/>
<polygon fill="none" points="69.013,92.762 69.013,45.806 39.057,45.806 39.057,92.762 48,92.762 58.75,92.762 "/>
<path fill="none" d="M59.129,41.289H48.983c-0.296,0-0.535,0.24-0.535,0.536s0.239,0.535,0.535,0.535h10.146
	c0.294,0,0.535-0.239,0.535-0.535S59.424,41.289,59.129,41.289z"/>
<circle fill="#41464B" cx="53.737" cy="97.338" r="3.15"/>
<circle fill="none" cx="53.737" cy="97.338" r="3.15"/>
<polygon fill="none" points="69.013,92.762 69.013,45.806 39.057,45.806 39.057,92.762 48,92.762 58.75,92.762 "/>
<path fill="none" d="M59.129,41.289H48.983c-0.296,0-0.535,0.24-0.535,0.536s0.239,0.535,0.535,0.535h10.146
	c0.294,0,0.535-0.239,0.535-0.535S59.424,41.289,59.129,41.289z"/>
<path fill="#D76C70" d="M66.527,36.747H41.285c-2.237,0-4.051,1.814-4.051,4.051v57.343c0,2.238,1.814,4.051,4.051,4.051H48h10.75
	h7.777c2.237,0,4.051-1.813,4.051-4.051V40.798C70.578,38.561,68.764,36.747,66.527,36.747z M48.983,41.289h10.146
	c0.294,0,0.535,0.24,0.535,0.536s-0.24,0.535-0.535,0.535H48.983c-0.296,0-0.535-0.239-0.535-0.535S48.687,41.289,48.983,41.289z
	 M53.737,100.488c-1.739,0-3.15-1.411-3.15-3.15s1.411-3.15,3.15-3.15c1.741,0,3.151,1.41,3.151,3.15S55.478,100.488,53.737,100.488
	z M69.013,92.762H58.75H48h-8.943V45.806h29.957V92.762z"/>
<path fill="none" stroke="#41464B" stroke-width="1.6733" stroke-miterlimit="10" d="M63.13,21.101
	c14.465,3.979,25.095,17.218,25.095,32.947"/>
<path fill="none" stroke="#41464B" stroke-width="1.6733" stroke-miterlimit="10" d="M98.431,54.048
	c0-20.426-13.804-37.619-32.588-42.786"/>
<path fill="none" stroke="#41464B" stroke-width="1.6733" stroke-miterlimit="10" d="M60.602,30.274
	c10.438,2.871,18.107,12.424,18.107,23.773"/>
<path fill="none" stroke="#41464B" stroke-width="1.6733" stroke-miterlimit="10" d="M88.225,54.048
	c0-15.729-10.629-28.968-25.095-32.947"/>
</svg>
