<?xml version="1.0" encoding="utf-8"?>
<!-- Generator: Adobe Illustrator 16.0.0, SVG Export Plug-In . SVG Version: 6.00 Build 0)  -->
<!DOCTYPE svg PUBLIC "-//W3C//DTD SVG 1.1//EN" "http://www.w3.org/Graphics/SVG/1.1/DTD/svg11.dtd">
<svg version="1.1" id="Layer_1" xmlns="http://www.w3.org/2000/svg" xmlns:xlink="http://www.w3.org/1999/xlink" x="0px" y="0px"
	 width="612px" height="612px" viewBox="0 0 612 612" enable-background="new 0 0 612 612" xml:space="preserve">
<path fill="#F7F7F7" d="M522.312,89.615C464.523,31.826,387.689,0,305.963,0c-81.726,0-158.56,31.826-216.348,89.615
	C31.826,147.403,0,224.237,0,305.963c0,81.727,31.826,158.561,89.615,216.349c57.789,57.788,134.623,89.614,216.348,89.614
	c81.727,0,158.561-31.826,216.349-89.614s89.614-134.622,89.614-216.349C611.926,224.237,580.1,147.403,522.312,89.615z
	 M305.963,578.372c-72.763,0-141.171-28.335-192.623-79.787c-51.451-51.45-79.787-119.858-79.787-192.622
	c0-72.764,28.336-141.172,79.788-192.623c51.45-51.451,119.858-79.787,192.622-79.787c72.764,0,141.172,28.336,192.622,79.788
	c51.452,51.451,79.787,119.859,79.787,192.622c0,72.763-28.335,141.171-79.787,192.622
	C447.134,550.037,378.726,578.372,305.963,578.372z"/>
<polygon fill="#F7F7F7" points="247.092,524.362 49.084,368.041 84.858,322.729 236.614,442.536 476.555,125.47 522.591,160.308 "/>
</svg>
