<?xml version="1.0" encoding="iso-8859-1"?>
<!-- Generator: Adobe Illustrator 17.1.0, SVG Export Plug-In . SVG Version: 6.00 Build 0)  -->
<!DOCTYPE svg PUBLIC "-//W3C//DTD SVG 1.1//EN" "http://www.w3.org/Graphics/SVG/1.1/DTD/svg11.dtd">
<svg version="1.1" id="Calque_1" xmlns="http://www.w3.org/2000/svg" xmlns:xlink="http://www.w3.org/1999/xlink" x="0px" y="0px"
	 viewBox="0 0 175 160" style="enable-background:new 0 0 175 160;" xml:space="preserve">
<path style="fill:#F7F7F7;stroke:#5E5B59;stroke-width:3;stroke-miterlimit:10;" d="M88,112H37.783c-18.49,0-33.48-14.51-33.48-33
	l0,0c0-18.49,14.99-33,33.48-33H87"/>
<path style="fill:#5E5B59;" d="M193,88.5v67h-14h-60.217C100.293,155.5,85,140.49,85,122v-0.5v-33v-19V36l0,0
	c0-18.49,15.293-32.5,33.783-32.5H179h14v66"/>
<path style="fill:#F7F7F7;stroke:#F7F7F7;stroke-width:2.7;stroke-miterlimit:10;" d="M154.351,91.685
	c-4.389-2.009-22.009,6.487-24.218,10.189c-2.208,3.702-1.713,6.241-1.656,8.297l-2.849,1.68c-1.771-1.045-3.756-2.706-8.063-2.564
	c-4.308,0.142-20.237,11.509-20.602,16.322l2.1,3.67c1.584-0.371,2.816-0.252,3.325,0.493c0.509,0.744,5.95,7.888,10.18,9.155
	c5.914,1.721,14.238-2.699,16.308-6.985c3.538-7.938-2.606-15.048,0.365-16.801c0.037-0.022,0.074-0.036,0.111-0.055
	c0.309-0.185,0.141-0.096,0.179-0.118c2.972-1.753,6.26,7.04,14.918,7.784c4.752,0.262,12.665-4.9,14.02-10.908
	c0.938-4.315-2.676-12.545-3.081-13.351c-0.406-0.806,0.082-1.958,1.174-3.165L154.351,91.685z M128.384,126.088
	c-0.199,5.438-1.191,6.484-5.544,9.261c-4.353,2.776-11.899,4.736-17.528-4.917c-2.383-4.319-3.541-8.43-1.017-11.173
	c2.524-2.743,6.914-5.402,10.612-7.165c3.697-1.763,7.675,0.14,8.376,1.329C123.626,114.007,128.575,120.853,128.384,126.088z
	 M150.392,119.098c-4.536,2.467-5.931,2.829-10.787,0.372c-4.674-2.366-8.272-10.009-8.615-10.592
	c-0.701-1.189-0.442-5.591,2.89-7.974c3.332-2.383,7.782-4.939,11.404-5.821c3.622-0.882,6.659,2.12,9.286,6.295
	C160.294,110.976,154.928,116.632,150.392,119.098z"/>
<line style="opacity:0.5;fill:none;stroke:#F7F7F7;stroke-miterlimit:10;" x1="91" y1="80" x2="169" y2="80"/>
<path style="fill:#F7F7F7;stroke:#F7F7F7;stroke-width:0.9;stroke-miterlimit:10;" d="M107.231,40.408l13.022,9.82l27.333-35.785
	c1.505-2.15,4.47-2.672,6.62-1.167l0.361,0.266c2.15,1.506,2.673,4.469,1.167,6.62l-29.826,45.948
	c-1.126,1.608-2.244,2.167-4.206,2.297c-1.961,0.13-3.147-0.598-4.324-1.776l-16.973-19.406c-1.879-1.879-1.879-4.926,0-6.805
	l0.024-0.011C102.305,38.528,105.352,38.528,107.231,40.408z"/>
<path style="fill:#5E5B59;" d="M25.26,80.884c0.092,1.394,1.49,2.189,2.632,2.989l32.648,21.193c1.528,1.07,3.633,0.699,4.703-0.829
	l0.189-0.257c1.07-1.528,0.699-3.634-0.829-4.703L39.177,79.855v-0.711l25.427-19.421c1.528-1.07,1.899-3.176,0.829-4.703
	l-0.189-0.257c-1.07-1.528-3.175-1.899-4.703-0.829L27.892,75.127c-1.142,0.8-2.54,1.595-2.632,2.989V80.884z"/>
</svg>
