<?xml version="1.0" encoding="iso-8859-1"?>
<!-- Generator: Adobe Illustrator 17.1.0, SVG Export Plug-In . SVG Version: 6.00 Build 0)  -->
<!DOCTYPE svg PUBLIC "-//W3C//DTD SVG 1.1//EN" "http://www.w3.org/Graphics/SVG/1.1/DTD/svg11.dtd">
<svg version="1.1" id="Calque_1" xmlns="http://www.w3.org/2000/svg" xmlns:xlink="http://www.w3.org/1999/xlink" x="0px" y="0px"
	 viewBox="0 0 200 200" style="enable-background:new 0 0 200 200;" xml:space="preserve">
<g>
	<circle style="fill:#F7F7F7;stroke:#251D18;stroke-width:8.505;stroke-miterlimit:10;" cx="100.501" cy="109.15" r="85.33"/>
	<g>
		<path style="fill:#251D18;" d="M100.502,171.793c-34.546,0-62.647-28.095-62.647-62.641s28.101-62.647,62.647-62.647
			c34.54,0,62.647,28.101,62.647,62.647S135.042,171.793,100.502,171.793z M100.502,69.185c-22.037,0-39.967,17.929-39.967,39.967
			c0,22.032,17.929,39.961,39.967,39.961s39.967-17.929,39.967-39.961C140.468,87.114,122.539,69.185,100.502,69.185z"/>
	</g>
	<path style="fill:#251D18;" d="M99.6,96.112c-6.262,0-11.25-5.078-11.25-11.34v-45.36c0-6.262,4.988-9.54,11.25-9.54
		s11.25,3.278,11.25,9.54v45.36C110.85,91.034,105.862,96.112,99.6,96.112z"/>
	<path style="fill:#F7F7F7;" d="M100.05,98.362c-7.444,0-13.5-6.096-13.5-13.59v-45.36c0-7.493,6.056-10.89,13.5-10.89
		c7.444,0,13.5,3.396,13.5,10.89v45.36C113.55,92.265,107.494,98.362,100.05,98.362z M100.05,30.322c-4.963,0-9,4.078-9,9.09v45.36
		c0,5.012,4.037,9.09,9,9.09s9-4.078,9-9.09v-45.36C109.05,34.4,105.013,30.322,100.05,30.322z"/>
</g>
</svg>
