<?xml version="1.0" encoding="utf-8"?>
<!-- Generator: Adobe Illustrator 16.0.0, SVG Export Plug-In . SVG Version: 6.00 Build 0)  -->
<!DOCTYPE svg PUBLIC "-//W3C//DTD SVG 1.1//EN" "http://www.w3.org/Graphics/SVG/1.1/DTD/svg11.dtd">
<svg version="1.1" id="Layer_1" xmlns="http://www.w3.org/2000/svg" xmlns:xlink="http://www.w3.org/1999/xlink" x="0px" y="0px"
	 width="254.987px" height="245.988px" viewBox="0 0 254.987 245.988" enable-background="new 0 0 254.987 245.988"
	 xml:space="preserve">
<path fill="#5E5B59" d="M226.219,158.897h-12.925c-5.247,0-9.895,4.285-9.895,9.531v4.23c0,3.518-0.476,5.883-1.803,7.03
	c-1.308,1.13-3.752,1.82-7.146,1.99c6.495-12.416,11.691-25.673,15.113-38.207c0.044-0.046,0.118-0.089,0.161-0.136
	c9.461-10.218,12.404-35.468,12.762-38.957c0.362-0.365,1.479-1.144,3.823-1.876c2.109-0.659,3.539-2.625,3.512-4.835l-0.147-11.834
	c-0.004-0.297-0.041-0.59-0.097-0.878c9.662-7.979,15.821-20.049,15.821-33.559c0-8.36-2.363-16.166-6.45-22.795
	c-2.65,5.122-7.987,8.629-14.152,8.629c-8.802,0-15.936-7.135-15.936-15.937c0-4.623,1.98-8.772,5.124-11.684
	c-3.838-1.108-7.89-1.714-12.085-1.714c-20.322,0-37.386,13.937-42.164,32.773c-8.673-2.867-18.013-4.439-27.753-4.439
	c-9.797,0-19.191,1.588-27.908,4.487C99.313,21.858,82.238,7.897,61.898,7.897c-24.024,0-43.5,19.476-43.5,43.5
	c0,13.782,6.416,26.057,16.416,34.027c-0.194,0.528-0.31,1.084-0.317,1.653L34.34,98.286c-0.031,2.213,1.396,4.183,3.509,4.842
	c2.442,0.763,3.45,1.408,3.814,1.699c0.414,3.933,3.371,28.511,12.687,38.642c3.417,12.516,8.554,25.754,15.035,38.154
	c-3.751-0.295-5.377-1.188-6.061-1.761c-1.613-1.354-1.927-4.665-1.927-7.204v-4.23c0-5.247-4.304-9.531-9.55-9.531H38.923
	c-5.247,0-9.524,4.285-9.524,9.531v4.936c0,27.285,15.072,43.574,40.297,43.574c7.043,0,13.744-0.958,20.217-1.884l0.66-0.094
	c0.629-0.09,1.253-0.178,1.875-0.267c11.736,12.231,25.206,20.204,39.532,20.204c14.33,0,27.803-7.976,39.541-20.212
	c0.61,0.089,1.222,0.18,1.839,0.271c7.318,1.084,13.764,1.982,20.502,1.982c26.498,0,41.535-15.882,41.535-43.574v-4.936
	C235.398,163.182,231.466,158.897,226.219,158.897z"/>
<path fill="#F7F7F7" d="M213.398,168.897v3.762c0,13.159-7.338,18.564-20.497,18.564c-5.641,0-11.072-0.705-16.947-1.645
	c-5.64-0.94-11.528-1.646-17.873-1.646c-0.923-0.015-1.826-0.002-2.696,0.035c0.792-0.391,1.594-0.755,2.423-1.054
	c14.641-5.285,26.703-4.793,36.761-1.749l-2.015-5.582c-8.635-2.644-20.945-4.325-36.91,1.345
	c-4.612,1.665-8.575,3.637-12.018,5.776c3.368-3.188,7.369-6.214,12.178-8.981c13.491-7.764,25.455-9.388,35.891-8.149l-2.96-5.144
	c-8.964-1.094-21.378-0.598-36.105,7.777c-10.373,5.968-16.704,13.05-20.754,19.62c-4.064-6.378-10.324-13.187-20.345-18.953
	c-14.727-8.375-27.142-8.871-36.105-7.777l-2.959,5.144c10.436-1.238,22.399,0.386,35.891,8.149
	c4.81,2.767,8.811,5.794,12.179,8.981c-3.444-2.139-7.406-4.112-12.018-5.776c-15.965-5.67-28.274-3.988-36.909-1.345l-2.015,5.582
	c10.059-3.044,22.122-3.536,36.763,1.749c0.3,0.108,0.591,0.241,0.887,0.361c-0.218,0-0.421-0.012-0.642-0.008
	c-6.345,0-11.985,0.705-17.86,1.646c-5.64,0.939-11.505,1.645-16.91,1.645c-12.689,0-20.435-4.7-20.435-18.564v-3.762h-12v4.467
	c0,19.975,8.927,34.074,30.547,34.074c6.58,0,12.806-0.939,19.386-1.88c6.58-0.939,13.101-1.788,19.681-1.788
	c8.225,0,17.331,2.127,17.331,19.127h11.985c0-17,10.105-19.127,17.39-19.127c6.345,0,12.69,0.895,19.035,1.834
	c6.345,0.94,13.015,1.857,19.36,1.857c23.735,0,32.285-14.592,32.285-34.097v-4.467H213.398z"/>
<path fill="#F7F7F7" d="M224.676,85.897c-7.666-11-61.814-15.897-72.322-10.157c-10.507,5.74-12.906,11.157-15.67,17.157h-9.188
	c-2.764-6-5.167-11.417-15.674-17.157c-10.508-5.74-64.66-0.843-72.326,10.157L39.34,97.731c4.314,1.348,7.094,3.417,7.26,5.917
	c0.168,2.5,3.104,27.292,11.438,36.292c11.721,12.463,37.875,13.646,48.875,6.312c19.667-14,15-39.677,24.584-39.677
	c0.12,0,0.228,0.021,0.344,0.028c1-0.007,0.474-0.028,0.594-0.028c9.584,0,5.042,25.678,24.709,39.677
	c11,7.333,37.217,6.15,48.938-6.312c8.333-9,11.301-33.792,11.469-36.292c0.166-2.5,2.961-4.569,7.275-5.917L224.676,85.897z
	 M113.996,131.564c-8.15,12.731-12,13.833-26.334,14.333c-14.333,0.5-35.154-5.46-35-36.5c0.394-13.696,3.424-25.166,13.334-28.167
	s24.166-3.167,35.5-2.167c11.333,1,18.166,11.167,18.166,15C119.662,95.944,121.84,119.309,113.996,131.564z M176.518,145.897
	c-14.334-0.5-18.184-1.602-26.334-14.333c-7.844-12.255-5.666-35.62-5.666-37.5c0-3.833,6.833-14,18.166-15
	c11.334-1,25.59-0.833,35.5,2.167s12.94,14.47,13.334,28.167C211.672,140.438,190.851,146.397,176.518,145.897z"/>
</svg>
