<?xml version="1.0" encoding="utf-8"?>
<!-- Generator: Adobe Illustrator 16.0.0, SVG Export Plug-In . SVG Version: 6.00 Build 0)  -->
<!DOCTYPE svg PUBLIC "-//W3C//DTD SVG 1.1//EN" "http://www.w3.org/Graphics/SVG/1.1/DTD/svg11.dtd">
<svg version="1.1" id="Layer_1" xmlns="http://www.w3.org/2000/svg" xmlns:xlink="http://www.w3.org/1999/xlink" x="0px" y="0px"
	 width="96.5px" height="127.5px" viewBox="0 0 96.5 127.5" enable-background="new 0 0 96.5 127.5" xml:space="preserve">
<path fill="#B82B22" d="M6,0v3.448v19.418v86.413c0,9.652,7.173,17.477,16.021,17.477c0.164,0,0.428-0.021,0.59-0.026L80,126.75V127
	h19V22.866V2.477V0H6z"/>
<path fill="#F7F7F7" d="M10,0v105.396c0,9.652,7.115,17.477,15.962,17.477c0.164,0,0.16-0.021,0.323-0.026L97,122.872V0H10z"/>
<line fill="none" x1="97" y1="-15" x2="97" y2="152"/>
<path display="none" fill="#5E5B59" d="M73.894,8.665c0.04-0.179,0.164-0.531,0.476-1.039l0.759-1.232l-3.93-4.405l-0.578-0.146
	c-0.352-0.088-0.735-0.134-1.14-0.134c-5.487,0-19.282,10.231-20.898,14.591c-1.308,3.528-0.879,5.938-0.343,7.869l-0.387,0.337
	c-1.266-0.549-2.812-1.095-4.864-1.095c-0.949,0-1.923,0.112-2.977,0.343c-4.603,1.009-17.856,14.415-17.26,19.953l0.063,0.592
	l3.758,4.44l1.326-0.582c0.558-0.245,0.898-0.317,1.081-0.338c1.182,1.1,7.032,6.34,11.538,6.829
	c0.336,0.034,0.676,0.051,1.018,0.051c6.417,0,13.137-5.683,14.439-10.445c1.19-4.943-0.696-9.053-1.944-11.772
	c-0.344-0.75-0.793-1.727-0.924-2.268c0.521,0.204,1.435,0.783,2.135,1.227c2.391,1.518,5.666,3.597,10.049,3.597c0,0,0,0,0,0
	c0.444,0,0.896-0.022,1.401-0.072c5.248-0.674,12.132-7.344,12.387-13.896C79.221,16.513,74.789,9.941,73.894,8.665z M53.928,21.995
	c-0.11-0.142-0.195-0.249-0.252-0.318c-0.319-0.607-0.571-3.231,1.147-5.014c2.96-3.071,6.175-5.554,8.599-6.642
	c0.379-0.17,0.757-0.253,1.154-0.253c1.568,0,3.565,1.304,5.904,3.842c2.288,2.604,3.345,5.126,3.145,7.498
	c-0.252,2.974-2.432,5.153-3.71,6.188c-2.41,1.952-3.243,2.401-4.46,2.401c-0.771,0-1.795-0.199-3.32-0.647
	C60.534,28.581,57.812,26.975,53.928,21.995z M47.941,46.406c-1.131,1.055-3.45,2.825-6.271,2.825c-2.505,0-4.981-1.401-7.331-4.129
	c-4.151-5.061-2.987-6.914-2.605-7.522c1.414-2.25,4.319-5.089,7.771-7.594c1.047-0.76,2.187-0.92,2.959-0.92
	c1.184,0,2.016,0.362,2.117,0.426c0.05,0.058,0.163,0.177,0.327,0.347c4.394,4.536,5.606,7.455,5.85,9.104
	C51.362,43.036,50.995,43.557,47.941,46.406z"/>
<path display="none" fill="#5E5B59" d="M38.59,95.352l9.49,7.156l19.919-26.079c1.097-1.567,3.257-1.948,4.824-0.85l0.263,0.193
	c1.567,1.098,1.949,3.257,0.85,4.825l-21.735,33.485c-0.821,1.171-1.636,1.579-3.066,1.673c-1.429,0.095-2.293-0.436-3.151-1.294
	l-12.369-14.143c-1.369-1.369-1.369-3.59,0-4.959l0.017-0.008C35,93.981,37.221,93.981,38.59,95.352z"/>
<rect x="20" y="60" fill="#5E5B59" width="66" height="3"/>
</svg>
