<?xml version="1.0" encoding="utf-8"?>
<!-- Generator: Adobe Illustrator 16.0.0, SVG Export Plug-In . SVG Version: 6.00 Build 0)  -->
<!DOCTYPE svg PUBLIC "-//W3C//DTD SVG 1.1//EN" "http://www.w3.org/Graphics/SVG/1.1/DTD/svg11.dtd">
<svg version="1.1" id="Calque_3" xmlns="http://www.w3.org/2000/svg" xmlns:xlink="http://www.w3.org/1999/xlink" x="0px" y="0px"
	 width="134.334px" height="127.76px" viewBox="0 0 134.334 127.76" enable-background="new 0 0 134.334 127.76"
	 xml:space="preserve">
<polygon fill="#E9E400" points="67.167,12.428 84.27,47.083 122.515,52.641 94.841,79.616 101.374,117.706 67.167,99.723 
	32.96,117.706 39.494,79.616 11.82,52.641 50.064,47.083 "/>
<path fill="#5E5B59" d="M108.679,127.76l-41.512-21.823L25.655,127.76l7.929-46.224L0,48.8l46.41-6.743L67.167,0l20.755,42.057
	l46.412,6.743L100.75,81.536L108.679,127.76z M67.167,93.509l26.901,14.144l-5.138-29.956l21.765-21.215l-30.078-4.37l-13.45-27.256
	L53.716,52.111l-30.077,4.37l21.764,21.215l-5.138,29.956L67.167,93.509z"/>
</svg>
