<?xml version="1.0" encoding="iso-8859-1"?>
<!-- Generator: Adobe Illustrator 17.1.0, SVG Export Plug-In . SVG Version: 6.00 Build 0)  -->
<!DOCTYPE svg PUBLIC "-//W3C//DTD SVG 1.1//EN" "http://www.w3.org/Graphics/SVG/1.1/DTD/svg11.dtd">
<svg version="1.1" id="Calque_1" xmlns="http://www.w3.org/2000/svg" xmlns:xlink="http://www.w3.org/1999/xlink" x="0px" y="0px"
	 viewBox="0 0 3 75" style="enable-background:new 0 0 3 75;" xml:space="preserve">
<g style="opacity:0.5;">
	<linearGradient id="SVGID_1_" gradientUnits="userSpaceOnUse" x1="1.5" y1="73" x2="1.5" y2="3">
		<stop  offset="0" style="stop-color:#FFFFFF;stop-opacity:0"/>
		<stop  offset="0.5" style="stop-color:#ABABAB"/>
		<stop  offset="1" style="stop-color:#F8F8F8;stop-opacity:0"/>
	</linearGradient>
	<path style="fill:url(#SVGID_1_);" d="M1.5,3c0,0,0.088,1.094,0.194,3.008c0.086,1.914,0.265,4.648,0.378,7.93
		c0.129,3.281,0.236,7.109,0.307,11.211c0.026,2.051,0.082,4.17,0.086,6.323C2.476,33.625,2.488,35.813,2.499,38
		c-0.011,2.188-0.023,4.375-0.034,6.528c0,2.153-0.06,4.272-0.085,6.323c-0.07,4.102-0.177,7.93-0.306,11.211
		c-0.112,3.281-0.294,6.016-0.38,7.93C1.589,71.906,1.5,73,1.5,73s-0.089-1.094-0.195-3.008c-0.086-1.914-0.268-4.648-0.38-7.93
		c-0.129-3.281-0.237-7.109-0.306-11.211c-0.025-2.051-0.085-4.17-0.085-6.323C0.523,42.375,0.512,40.188,0.501,38
		c0.012-2.188,0.023-4.375,0.035-6.528c0.004-2.153,0.06-4.272,0.086-6.323c0.071-4.102,0.178-7.93,0.307-11.211
		c0.113-3.281,0.292-6.016,0.378-7.93C1.412,4.094,1.5,3,1.5,3z"/>
</g>
</svg>
