<?xml version="1.0" encoding="utf-8"?>
<!-- Generator: Adobe Illustrator 16.0.0, SVG Export Plug-In . SVG Version: 6.00 Build 0)  -->
<!DOCTYPE svg PUBLIC "-//W3C//DTD SVG 1.1//EN" "http://www.w3.org/Graphics/SVG/1.1/DTD/svg11.dtd">
<svg version="1.1" id="Calque_3" xmlns="http://www.w3.org/2000/svg" xmlns:xlink="http://www.w3.org/1999/xlink" x="0px" y="0px"
	 width="134.334px" height="127.76px" viewBox="32.077 7.441 134.334 127.76" enable-background="new 32.077 7.441 134.334 127.76"
	 xml:space="preserve">
<g>
	<polygon fill="#F7F7F7" points="99.244,19.869 116.347,54.526 154.592,60.082 126.918,87.058 133.451,125.148 99.244,107.164 
		65.037,125.148 71.571,87.058 43.897,60.082 82.141,54.526 	"/>
	<path fill="#5E5B59" d="M140.756,135.201l-41.512-21.823l-41.512,21.823l7.928-46.224L32.077,56.242l46.411-6.743L99.244,7.441
		l20.755,42.058l46.412,6.743l-33.584,32.736L140.756,135.201z M99.244,100.95l26.902,14.144l-5.138-29.956l21.764-21.215
		l-30.078-4.37l-13.45-27.255L85.793,59.552l-30.077,4.37L77.48,85.138l-5.138,29.956L99.244,100.95z"/>
</g>
</svg>
