<?xml version="1.0" encoding="iso-8859-1"?>
<!-- Generator: Adobe Illustrator 17.1.0, SVG Export Plug-In . SVG Version: 6.00 Build 0)  -->
<!DOCTYPE svg PUBLIC "-//W3C//DTD SVG 1.1//EN" "http://www.w3.org/Graphics/SVG/1.1/DTD/svg11.dtd">
<svg version="1.1" xmlns="http://www.w3.org/2000/svg" xmlns:xlink="http://www.w3.org/1999/xlink" x="0px" y="0px"
	 viewBox="0 0 200 200" style="enable-background:new 0 0 200 200;" xml:space="preserve">
<g id="Calque_2" style="display:none;">
	
		<image style="display:inline;overflow:visible;opacity:0.5;" width="225" height="225" xlink:href="9CFB469B.jpg"  transform="matrix(1 0 0 1 -12 -13)">
	</image>
</g>
<g id="Calque_1">
	<circle style="fill:#F7F7F7;stroke:#251D18;stroke-width:9.45;stroke-miterlimit:10;" cx="100.501" cy="100.15" r="94.811"/>
	<g>
		<path style="fill:#251D18;" d="M67.255,73.829c0,0,4.596,1.111,11.384-1.488c0,0,3.451-20.865-3.115-37.576
			c0,0-5.721,0.193-8.818,0.282C66.705,35.047,76.997,56.787,67.255,73.829z"/>
		<path style="fill:#251D18;" d="M88.926,142.684c-8.101,9.79-22.073-31.081-22.073-31.081s-13.597-40.997-1.224-38.102
			c0,0,9.244-17.358-0.675-38.287c0,0,0,0-11.543,3.887c0,0-14.782,38.19-2.177,77.761c13.9,39.135,48.772,60.604,48.772,60.604
			c11.543-3.887,11.543-3.887,11.543-3.887C106.467,149.967,88.926,142.684,88.926,142.684z"/>
		<path style="fill:#251D18;" d="M99.988,135.739c-6.977,2.037-9.965,5.701-9.965,5.701c18.066,7.677,23.021,31.214,23.021,31.214
			c2.52-1.803,7.193-5.11,7.193-5.11C115.357,150.266,99.988,135.739,99.988,135.739z"/>
	</g>
</g>
</svg>
