<?xml version="1.0" encoding="iso-8859-1"?>
<!-- Generator: Adobe Illustrator 17.1.0, SVG Export Plug-In . SVG Version: 6.00 Build 0)  -->
<!DOCTYPE svg PUBLIC "-//W3C//DTD SVG 1.1//EN" "http://www.w3.org/Graphics/SVG/1.1/DTD/svg11.dtd">
<svg version="1.1" id="Calque_1" xmlns="http://www.w3.org/2000/svg" xmlns:xlink="http://www.w3.org/1999/xlink" x="0px" y="0px"
	 viewBox="0 0 200 200" style="enable-background:new 0 0 200 200;" xml:space="preserve">
<circle style="fill:#F7F7F7;stroke:#251D18;stroke-width:9.45;stroke-miterlimit:10;" cx="100.501" cy="100.15" r="94.811"/>
<g>
	<path style="fill:#251D18;" d="M100.502,169.753c-38.384,0-69.608-31.217-69.608-69.601s31.223-69.608,69.608-69.608
		c38.378,0,69.608,31.223,69.608,69.608S138.88,169.753,100.502,169.753z M100.502,55.744c-24.486,0-44.408,19.921-44.408,44.408
		c0,24.48,19.921,44.401,44.408,44.401s44.408-19.921,44.408-44.401C144.909,75.665,124.988,55.744,100.502,55.744z"/>
</g>
<path style="fill:#251D18;" d="M99.5,85.663c-6.958,0-12.5-5.642-12.5-12.6v-50.4c0-6.958,5.542-10.6,12.5-10.6
	s12.5,3.642,12.5,10.6v50.4C112,80.021,106.458,85.663,99.5,85.663z"/>
<path style="fill:#F7F7F7;" d="M100,88.163c-8.271,0-15-6.773-15-15.1v-50.4c0-8.326,6.729-12.1,15-12.1s15,3.773,15,12.1v50.4
	C115,81.389,108.271,88.163,100,88.163z M100,12.563c-5.514,0-10,4.531-10,10.1v50.4c0,5.569,4.486,10.1,10,10.1s10-4.531,10-10.1
	v-50.4C110,17.094,105.514,12.563,100,12.563z"/>
</svg>
