<?xml version="1.0" encoding="utf-8"?>
<!-- Generator: Adobe Illustrator 16.0.0, SVG Export Plug-In . SVG Version: 6.00 Build 0)  -->
<!DOCTYPE svg PUBLIC "-//W3C//DTD SVG 1.1//EN" "http://www.w3.org/Graphics/SVG/1.1/DTD/svg11.dtd">
<svg version="1.1" id="Calque_2" xmlns="http://www.w3.org/2000/svg" xmlns:xlink="http://www.w3.org/1999/xlink" x="0px" y="0px"
	 width="688.13px" height="768px" viewBox="307.746 0 688.13 768" enable-background="new 307.746 0 688.13 768"
	 xml:space="preserve">
<path fill="#F7F7F7" d="M433.989,373.91c0,0,0.718-7.885-1.696-17.63c-0.029-0.064-0.399-0.123-0.43-0.183
	c-5.036-8.367-13.309-15.658-24.772-16.582c-52.357-4.213-49.611,48.252-49.611,48.252v337.658h29.422V378.586h5.884h17.654v346.839
	h23.536V374.357L433.989,373.91z"/>
<rect x="386.901" y="378.586" fill="#5E5B59" width="5.884" height="346.839"/>
<rect x="392.785" y="378.586" fill="#5E5B59" width="17.654" height="346.839"/>
<path fill="#5E5B59" d="M923.027,283.783l-225.001-225c-33.135-33.13-86.851-33.13-119.983,0l-224.999,225
	c-28.95,28.952-32.6,73.617-10.957,106.536h591.897C955.627,357.4,951.975,312.735,923.027,283.783z"/>
<polygon fill="none" points="740.122,611.791 846.078,725.426 740.122,611.791 "/>
<path fill="#5E5B59" d="M875.299,320.821v-1.077H462.226h-27.207h-47.617c0,0-0.189,0.047-0.448,0.118
	c-0.605-0.018-1.118-0.118-1.742-0.118c-43.373,0-41.979,65.17-41.979,65.17l-0.421,340.512h8.783h5.884V387.768
	c0,0-2.747-52.465,49.611-48.252c11.463,0.924,19.736,8.215,24.772,16.582c0.031,0.06,0.4,0.118,0.43,0.183
	c2.414,9.745,1.696,17.63,1.696,17.63l-0.014,0.447v351.069h170.146c-8.895,0-16.105-7.211-16.105-16.105V510.078
	c0-8.896,7.211-16.107,16.105-16.107h26.142h93.754c8.896,0,16.105,7.211,16.105,16.107v101.713v97.529
	c0,8.895-7.209,16.105-16.105,16.105h122.062h76.295V369.415C922.373,342.328,898.836,321.351,875.299,320.821z"/>
<polygon fill="#5E5B59" points="630.263,493.971 484.11,337.227 630.263,493.971 "/>
</svg>
