<?xml version="1.0" encoding="iso-8859-1"?>
<!-- Generator: Adobe Illustrator 17.1.0, SVG Export Plug-In . SVG Version: 6.00 Build 0)  -->
<!DOCTYPE svg PUBLIC "-//W3C//DTD SVG 1.1//EN" "http://www.w3.org/Graphics/SVG/1.1/DTD/svg11.dtd">
<svg version="1.1" id="Calque_2" xmlns="http://www.w3.org/2000/svg" xmlns:xlink="http://www.w3.org/1999/xlink" x="0px" y="0px"
	 viewBox="0 0 108 108" style="enable-background:new 0 0 108 108;" xml:space="preserve">
<g>
	<g>
		<path style="fill:#5E5B59;" d="M114.64,107.492c0-35.093,21.938-63.541,49-63.541s49,28.448,49,63.541"/>
		<path style="fill:#F2F2F2;" d="M114.64,107.492c0,0-0.005-0.694-0.015-1.994c-0.008-0.65-0.017-1.452,0.026-2.396
			c0.034-0.943,0.044-2.033,0.159-3.244c0.147-2.43,0.514-5.367,1.096-8.714c0.595-3.344,1.521-7.082,2.916-11.037
			c1.379-3.959,3.249-8.129,5.703-12.281c2.434-4.159,5.516-8.274,9.301-11.971c1.903-1.836,3.975-3.561,6.199-5.141
			c2.229-1.574,4.646-2.941,7.181-4.106c5.077-2.364,10.715-3.589,16.468-3.656c2.727,0.022,5.69,0.355,8.418,0.967
			c2.768,0.6,5.451,1.518,7.985,2.687c2.535,1.165,4.952,2.532,7.181,4.106c2.224,1.58,4.296,3.306,6.199,5.141
			c3.784,3.697,6.871,7.809,9.303,11.97c2.454,4.152,4.323,8.322,5.702,12.282c1.394,3.955,2.322,7.693,2.916,11.038
			c0.582,3.347,0.948,6.284,1.095,8.714c0.115,1.211,0.125,2.299,0.159,3.242c0.042,0.943,0.034,1.746,0.025,2.397
			c-0.01,1.301-0.015,1.995-0.015,1.995s-0.032-0.693-0.093-1.992c-0.044-1.298-0.204-3.2-0.463-5.607
			c-0.244-2.409-0.728-5.313-1.437-8.601c-0.729-3.285-1.797-6.933-3.243-10.8c-1.453-3.864-3.393-7.913-5.891-11.91
			c-2.478-4.01-5.597-7.91-9.26-11.479c-1.856-1.761-3.87-3.408-6.021-4.912c-2.157-1.497-4.487-2.787-6.919-3.882
			c-2.432-1.099-4.997-1.952-7.634-2.501c-2.67-0.563-5.246-0.843-8.069-0.859c-5.334,0.025-10.792,1.135-15.638,3.358
			c-2.433,1.095-4.762,2.385-6.92,3.882c-2.152,1.503-4.166,3.151-6.022,4.912c-3.663,3.569-6.786,7.467-9.262,11.479
			c-2.499,3.998-4.438,8.048-5.891,11.911c-1.446,3.867-2.516,7.514-3.243,10.8c-0.709,3.288-1.192,6.192-1.436,8.602
			c-0.259,2.406-0.42,4.305-0.463,5.606C114.672,106.799,114.64,107.492,114.64,107.492z"/>
	</g>
	<g>
		<ellipse style="fill:#5E5B59;" cx="163.64" cy="33.887" rx="25.275" ry="25.252"/>
		<path style="fill:#F2F2F2;" d="M163.641,8.586c0,0,0.62,0.03,1.781,0.085c0.582,0.001,1.294,0.101,2.129,0.236
			c0.417,0.069,0.871,0.115,1.344,0.217c0.469,0.119,0.968,0.246,1.495,0.38c2.084,0.585,4.606,1.501,7.135,3.19
			c2.529,1.66,5.125,3.991,7.241,7.083c2.091,3.096,3.659,6.953,4.201,11.225c0.088,0.531,0.078,1.075,0.122,1.618
			c0.014,0.548,0.102,1.083,0.055,1.652c-0.065,1.093-0.051,2.195-0.268,3.321c-0.265,2.264-0.975,4.478-1.88,6.645
			c-0.927,2.166-2.247,4.183-3.756,6.073c-1.558,1.859-3.411,3.491-5.443,4.901c-2.063,1.372-4.345,2.424-6.728,3.198
			c-2.413,0.728-4.894,1.063-7.452,1.129c-2.449-0.043-5.028-0.359-7.43-1.069c-2.395-0.755-4.695-1.791-6.78-3.153
			c-2.052-1.4-3.937-3.022-5.51-4.892c-1.527-1.897-2.866-3.924-3.809-6.104c-0.921-2.177-1.647-4.419-1.922-6.687
			c-0.222-1.123-0.215-2.256-0.285-3.368c-0.048-0.611,0.042-1.106,0.056-1.66c0.045-0.541,0.035-1.069,0.124-1.611
			c0.556-4.354,2.138-8.222,4.28-11.331c2.154-3.104,4.793-5.42,7.354-7.054c2.563-1.659,5.093-2.559,7.181-3.139
			c0.528-0.131,1.028-0.256,1.499-0.373c0.474-0.1,0.928-0.143,1.345-0.21c0.836-0.131,1.547-0.228,2.132-0.226
			C163.019,8.612,163.641,8.586,163.641,8.586z M163.639,8.686c0,0-0.616,0.036-1.774,0.103c-0.581,0.007-1.288,0.114-2.116,0.257
			c-0.413,0.073-0.863,0.123-1.332,0.229c-0.465,0.123-0.96,0.254-1.482,0.393c-2.065,0.599-4.557,1.539-7.027,3.261
			c-2.475,1.683-4.991,4.033-6.993,7.117c-1.971,3.079-3.445,6.893-3.902,11.013c-0.417,4.192,0.132,8.679,1.988,12.858
			c0.905,2.096,2.192,4.045,3.659,5.871c1.519,1.791,3.305,3.378,5.272,4.745c1.996,1.331,4.205,2.35,6.511,3.104
			c2.34,0.707,4.71,1.03,7.219,1.103c2.4-0.05,4.867-0.354,7.197-1.043c2.318-0.735,4.545-1.739,6.563-3.059
			c1.987-1.357,3.805-2.934,5.339-4.735c1.485-1.833,2.79-3.792,3.711-5.901c0.898-2.104,1.615-4.285,1.886-6.47
			c0.221-1.075,0.217-2.197,0.29-3.285c0.048-0.522-0.027-1.073-0.034-1.603c-0.036-0.533-0.018-1.068-0.097-1.59
			c-0.471-4.202-1.958-8.026-3.981-11.119c-2.039-3.096-4.6-5.432-7.106-7.088c-2.502-1.691-5.003-2.615-7.073-3.209
			c-0.524-0.136-1.019-0.265-1.485-0.386c-0.47-0.104-0.92-0.151-1.333-0.223c-0.828-0.139-1.535-0.243-2.119-0.247
			C164.256,8.719,163.639,8.686,163.639,8.686z"/>
	</g>
</g>
<g>
	<path style="fill:#5E5B59;" d="M98.991,71h-6.113C90.397,71,87,73.712,87,76.188v1.997c0,1.66,0.374,2.777-0.253,3.318
		c-0.618,0.533-1.475,0.859-3.08,0.939c3.071-5.86,5.679-12.117,7.297-18.033c0.021-0.022,0.131-0.042,0.151-0.064
		c4.475-4.823,5.904-16.74,6.073-18.387c0.171-0.172,0.718-0.54,1.827-0.885c0.998-0.311,1.683-1.239,1.67-2.282l-0.065-5.585
		c-0.002-0.14-0.017-0.278-0.043-0.415c4.569-3.766,7.484-9.463,7.484-15.839c0-3.946-1.117-7.63-3.05-10.759
		c-1.253,2.417-3.777,4.073-6.693,4.073c-4.163,0-7.536-3.367-7.536-7.522c0-2.182,0.936-4.14,2.423-5.514
		c-1.815-0.523-3.731-0.809-5.715-0.809c-9.611,0-17.681,6.578-19.941,15.468c-4.102-1.353-8.519-2.095-13.125-2.095
		c-4.633,0-9.076,0.75-13.198,2.118C38.974,7.01,30.898,0.421,21.279,0.421c-11.362,0-20.572,9.192-20.572,20.531
		c0,6.505,3.034,12.298,7.763,16.06c-0.092,0.249-0.146,0.512-0.15,0.78l-0.074,5.29c-0.015,1.044,0.66,1.974,1.659,2.285
		c1.155,0.36,1.631,0.665,1.804,0.802c0.196,1.856,1.594,13.456,6,18.238c1.616,5.907,4.045,12.155,7.111,18.008
		c-1.774-0.139-2.564-0.561-2.888-0.831C21.17,80.946,21,79.383,21,78.185v-1.997C21,73.712,19.007,71,16.526,71h-6.113
		C7.932,71,6,73.712,6,76.188v2.329c0,12.878,7.083,20.566,19.012,20.566c3.331,0,6.477-0.452,9.539-0.889l0.301-0.044
		c0.297-0.042,0.587-0.084,0.881-0.126c5.55,5.773,11.918,9.536,18.693,9.536c6.777,0,13.147-3.765,18.699-9.54
		c0.289,0.042,0.577,0.085,0.869,0.128c3.461,0.512,6.343,0.936,9.53,0.936c12.532,0,19.477-7.496,19.477-20.566v-2.329
		C103,73.712,101.472,71,98.991,71z"/>
	<path style="fill:#F7F7F7;" d="M92,76v2.185c0,6.211-3.006,8.762-9.23,8.762c-2.668,0-5.004-0.333-7.783-0.776
		c-2.667-0.444-5.336-0.777-8.337-0.777c-0.437-0.007-0.805-0.001-1.217,0.016c0.375-0.185,0.783-0.356,1.175-0.498
		c6.924-2.495,12.643-2.262,17.4-0.825l-0.946-2.635c-4.084-1.248-9.902-2.041-17.452,0.635c-2.181,0.786-4.053,1.717-5.682,2.726
		c1.593-1.504,3.486-2.933,5.76-4.239c6.38-3.664,12.039-4.431,16.974-3.846l-1.4-2.428c-4.239-0.516-10.11-0.282-17.075,3.671
		c-4.905,2.817-7.9,6.159-9.815,9.26c-1.922-3.01-4.882-6.224-9.622-8.945c-6.965-3.953-12.836-4.187-17.075-3.671l-1.399,2.428
		c4.935-0.584,10.593,0.182,16.974,3.846c2.275,1.306,4.167,2.735,5.76,4.239c-1.629-1.01-3.503-1.941-5.684-2.726
		c-7.55-2.676-13.372-1.882-17.455-0.635l-0.953,2.635c4.757-1.437,10.462-1.669,17.386,0.825c0.142,0.051,0.28,0.114,0.419,0.171
		c-0.103,0-0.199-0.006-0.304-0.004c-3.001,0-5.668,0.333-8.446,0.777c-2.667,0.443-5.598,0.776-8.154,0.776
		c-6.001,0-9.821-2.218-9.821-8.762V76h-5v2.518C11,87.945,15.041,94.6,25.266,94.6c3.112,0,5.966-0.443,9.078-0.887
		c3.112-0.443,6.15-0.792,9.262-0.792c3.89,0,8.151,1.079,8.151,9.079h5.668c0-8,4.779-9.079,8.224-9.079
		c3.001,0,6.001,0.396,9.002,0.84c3.001,0.444,6.117,0.864,9.118,0.864c11.225,0,15.231-6.9,15.231-16.106V76H92z"/>
	<path style="fill:#F7F7F7;" d="M98.261,37.235c-3.625-5.192-29.234-7.773-34.203-5.063C59.089,34.881,57.954,38,56.647,40h-4.345
		c-1.307-2-2.444-5.119-7.413-7.828c-4.969-2.709-30.58-0.263-34.205,4.929l-0.074,5.653c2.04,0.636,3.355,1.646,3.433,2.826
		c0.079,1.18,1.468,12.898,5.409,17.146c5.543,5.882,17.912,6.449,23.114,2.988c9.301-6.607,7.094-18.723,11.626-18.723
		c0.057,0,0.108,0.012,0.163,0.016c0.473-0.003,0.224-0.012,0.281-0.012c4.533,0,2.384,12.12,11.686,18.727
		c5.202,3.461,17.601,2.903,23.144-2.979c3.941-4.248,5.344-15.949,5.424-17.129c0.079-1.18,1.4-2.156,3.441-2.792L98.261,37.235z
		 M45.918,58.789c-3.855,6.009-5.675,6.529-12.454,6.765c-6.778,0.236-16.625-2.577-16.553-17.227
		c0.186-6.464,1.619-11.878,6.306-13.294c4.687-1.416,11.429-1.495,16.789-1.023c5.36,0.472,8.591,5.27,8.591,7.08
		C48.597,41.977,49.627,53.005,45.918,58.789z M75.486,65.554c-6.779-0.236-8.6-0.756-12.454-6.765
		c-3.71-5.784-2.68-16.812-2.68-17.699c0-1.809,3.232-6.608,8.591-7.08c5.36-0.472,12.102-0.393,16.789,1.023
		c4.687,1.416,6.12,6.83,6.306,13.294C92.111,62.977,82.264,65.79,75.486,65.554z"/>
</g>
<g>
	<path style="fill:#5E5B59;" d="M84.132,183.324L66.159,165.35c1.758-3.441,2.756-7.334,2.756-11.463
		c0-13.946-11.316-25.252-25.275-25.252s-25.275,11.306-25.275,25.252c0,13.946,11.316,25.252,25.275,25.252
		c4.732,0,9.159-1.302,12.945-3.563l17.647,17.647c1.972,1.972,6.786,2.354,9.52-0.38C86.486,190.11,86.104,185.295,84.132,183.324z
		 M43.64,166.513c-6.98,0-12.638-5.653-12.638-12.626c0-6.973,5.658-12.626,12.638-12.626c6.98,0,12.638,5.653,12.638,12.626
		C56.278,160.86,50.619,166.513,43.64,166.513z"/>
	<g>
		<path style="fill:#F2F2F2;" d="M84.102,183.354l-9.029-8.944l-9.09-8.883l-0.125-0.122l0.08-0.166
			c1.288-2.696,2.093-5.585,2.472-8.531c0.287-2.951,0.088-5.98-0.639-8.831c-1.392-5.762-4.938-10.984-9.803-14.42
			c-2.424-1.725-5.16-3.016-8.042-3.787c-2.892-0.778-5.886-1.024-8.895-0.746c-2.962,0.313-5.902,1.135-8.566,2.495
			c-2.671,1.347-5.096,3.173-7.129,5.361c-2.034,2.187-3.675,4.736-4.82,7.491c-1.148,2.757-1.733,5.731-1.816,8.702
			c-0.08,2.98,0.352,5.962,1.301,8.769c0.948,2.811,2.4,5.453,4.283,7.743c1.876,2.294,4.16,4.25,6.711,5.746
			c2.55,1.5,5.368,2.53,8.276,3.051c0.732,0.095,1.457,0.262,2.196,0.301l2.201,0.112c1.523-0.041,2.97-0.113,4.427-0.406
			c2.92-0.494,5.715-1.598,8.273-3.079l0.291-0.169l0.231,0.234l8.042,8.14l7.999,8.183l0.999,1.024
			c0.33,0.336,0.652,0.689,1.034,0.94c0.741,0.515,1.649,0.842,2.567,0.985c1.838,0.291,3.823-0.045,5.372-1.12
			c1.558-1.075,2.49-2.898,2.687-4.772c0.104-0.939,0.05-1.899-0.182-2.817C85.167,184.924,84.754,184.04,84.102,183.354z
			 M84.162,183.294c0.673,0.696,1.101,1.591,1.35,2.515c0.244,0.93,0.308,1.904,0.211,2.859c-0.18,1.905-1.117,3.79-2.713,4.913
			c-1.575,1.142-3.611,1.541-5.531,1.282c-0.965-0.131-1.909-0.435-2.749-0.991c-0.422-0.267-0.756-0.621-1.101-0.954l-1.024-0.999
			l-8.183-7.999l-8.14-8.042l0.522,0.065c-2.641,1.54-5.533,2.689-8.555,3.208c-1.498,0.307-3.071,0.389-4.553,0.431l-2.309-0.109
			c-0.765-0.039-1.517-0.207-2.276-0.306c-6.038-1.077-11.615-4.414-15.445-9.185c-1.933-2.371-3.402-5.113-4.331-8.021
			c-0.938-2.911-1.337-5.979-1.211-9.01c0.125-3.037,0.773-6.061,1.971-8.856c1.193-2.795,2.887-5.368,4.972-7.567
			c2.084-2.2,4.558-4.024,7.272-5.36c2.719-1.325,5.645-2.223,8.674-2.55c2.987-0.292,6.081-0.078,9.015,0.648
			c2.944,0.73,5.76,1.993,8.271,3.715c2.505,1.724,4.741,3.879,6.459,6.407c1.733,2.514,3.012,5.34,3.752,8.302
			c0.735,2.992,0.889,6.048,0.567,9.091c-0.402,3.027-1.325,5.965-2.697,8.681l-0.046-0.288l8.883,9.09L84.162,183.294z"/>
		<path style="fill:#F2F2F2;" d="M43.639,166.556c0,0-0.311-0.012-0.892-0.035c-0.291,0.002-0.648-0.045-1.068-0.11
			c-0.424-0.042-0.9-0.148-1.428-0.288c-1.043-0.297-2.331-0.698-3.631-1.523c-1.297-0.805-2.668-1.94-3.762-3.512
			c-1.08-1.569-1.904-3.543-2.13-5.73c-0.044-0.55-0.075-1.089-0.067-1.674c0.044-0.547,0.054-1.091,0.179-1.67
			c0.167-1.154,0.556-2.256,1.043-3.335c0.496-1.078,1.195-2.064,1.955-3.002c0.789-0.922,1.733-1.713,2.744-2.417
			c2.053-1.373,4.53-2.156,7.058-2.23c1.245,0.004,2.531,0.145,3.75,0.486c1.211,0.363,2.378,0.87,3.441,1.544
			c1.047,0.694,1.996,1.52,2.803,2.456c0.781,0.954,1.468,1.976,1.956,3.078c0.999,2.186,1.276,4.612,1.034,6.754
			c-0.259,2.234-1.092,4.179-2.184,5.754c-1.103,1.569-2.476,2.702-3.775,3.506c-1.301,0.825-2.59,1.227-3.635,1.522
			c-0.529,0.139-1.004,0.244-1.427,0.285c-0.419,0.064-0.776,0.11-1.069,0.108C43.951,166.544,43.639,166.556,43.639,166.556z
			 M43.641,166.471c0,0,0.307-0.02,0.885-0.056c0.29-0.005,0.643-0.06,1.056-0.134c0.417-0.051,0.884-0.167,1.402-0.317
			c1.032-0.295,2.255-0.813,3.469-1.678c1.218-0.854,2.424-2.054,3.398-3.579c0.965-1.52,1.659-3.415,1.907-5.418
			c0.231-2.084-0.088-4.271-0.974-6.338c-0.436-1.036-1.063-2.001-1.778-2.909c-0.739-0.894-1.626-1.673-2.588-2.362
			c-0.977-0.672-2.064-1.194-3.204-1.584c-1.153-0.368-2.34-0.546-3.575-0.6c-1.217,0.005-2.439,0.135-3.616,0.462
			c-1.163,0.364-2.281,0.863-3.296,1.522c-0.999,0.68-1.891,1.493-2.647,2.401c-0.737,0.923-1.35,1.925-1.779,2.985
			c-0.415,1.056-0.739,2.151-0.84,3.222c-0.094,0.521-0.075,1.089-0.1,1.633c0.002,0.505,0.038,1.049,0.088,1.557
			c0.28,2.05,0.985,3.916,1.961,5.442c0.984,1.522,2.191,2.721,3.412,3.574c1.216,0.865,2.439,1.384,3.473,1.676
			c0.519,0.15,0.986,0.264,1.402,0.315c0.412,0.073,0.764,0.128,1.056,0.132C43.333,166.452,43.641,166.471,43.641,166.471z"/>
	</g>
</g>
<g>
	<polygon style="fill:#F7F7F7;" points="-99.741,101.024 -99.029,83.48 -18.769,8.643 -10.677,22.692 -11.883,106 -93.908,106 	"/>
	<path style="fill:#5E5B59;" d="M-13,23v82h-77.44c0,0-8.916,0.467-8.2-8.431c0.157-1.948,1.396-3.354,2.818-4.21
		c0.01-0.005,0.02-0.068,0.031-0.073c1.656-0.41,2.996-0.288,2.996-0.288L-92.719,92H-19V16.684V9h-74.559c-4.603,0-8.168,4-8.258,8
		H-102v70.199v4.624v8.092c0,0,0.008,0.032,0.02,0.076c-0.003,0.103-0.02,0.19-0.02,0.296c0,7.371,11.075,7.134,11.075,7.134
		L-11,107.52V23H-13z"/>
	<g>
		<line style="fill:#F2F2F2;" x1="-92" y1="99" x2="-18" y2="99"/>
		<rect x="-92" y="96" style="fill:#5E5B59;" width="73" height="4"/>
	</g>
</g>
</svg>
