<?xml version="1.0" encoding="utf-8"?>
<!-- Generator: Adobe Illustrator 16.0.0, SVG Export Plug-In . SVG Version: 6.00 Build 0)  -->
<!DOCTYPE svg PUBLIC "-//W3C//DTD SVG 1.1//EN" "http://www.w3.org/Graphics/SVG/1.1/DTD/svg11.dtd">
<svg version="1.1" id="Calque_2" xmlns="http://www.w3.org/2000/svg" xmlns:xlink="http://www.w3.org/1999/xlink" x="0px" y="0px"
	 width="690.86px" height="768px" viewBox="288.996 0 690.86 768" enable-background="new 288.996 0 690.86 768"
	 xml:space="preserve">
<g>
	<path fill="#5E5B59" d="M921.486,529.661h-39.34c-15.966,0-37.826,17.452-37.826,33.387v12.852c0,10.683,2.406,17.871-1.629,21.352
		c-3.978,3.432-9.492,5.529-19.821,6.044c19.764-37.712,36.547-77.979,46.96-116.05c0.134-0.142,0.843-0.271,0.971-0.412
		c28.799-31.037,37.995-107.729,39.082-118.328c1.101-1.107,4.621-3.475,11.758-5.696c6.423-2.001,10.831-7.973,10.748-14.686
		l-0.419-35.941c-0.013-0.901-0.109-1.789-0.277-2.671c29.404-24.235,48.163-60.898,48.163-101.93
		c0-25.394-7.188-49.102-19.628-69.238c-8.063,15.554-24.306,26.211-43.072,26.211c-26.79,0-48.497-21.668-48.497-48.407
		c0-14.042,6.023-26.643,15.593-35.485c-11.68-3.365-24.01-5.206-36.778-5.206c-61.85,0-113.784,42.333-128.328,99.543
		c-26.398-8.707-54.823-13.482-84.465-13.482c-29.814,0-58.407,4.827-84.934,13.63c-14.486-57.288-66.458-99.691-128.36-99.691
		c-73.119,0-132.389,59.154-132.389,132.125c0,41.862,19.525,79.143,49.958,103.353c-0.592,1.602-0.939,3.294-0.965,5.019
		l-0.476,34.043c-0.097,6.719,4.248,12.704,10.676,14.705c7.433,2.316,10.497,4.279,11.61,5.161
		c1.262,11.944,10.258,86.595,38.612,117.369c10.4,38.013,26.031,78.222,45.762,115.889c-11.417-0.895-16.5-3.61-18.585-5.349
		c-4.91-4.105-6.004-14.164-6.004-21.873v-12.852c0-15.935-12.825-33.387-28.792-33.387h-39.339
		c-15.966,0-28.399,17.452-28.399,33.387v14.987c0,82.876,45.582,132.351,122.35,132.351c21.436,0,41.682-2.909,61.387-5.721
		l1.937-0.283c1.912-0.271,3.778-0.541,5.67-0.812c35.716,37.152,76.697,61.369,120.297,61.369
		c43.613,0,84.606-24.229,120.335-61.394c1.859,0.271,3.714,0.546,5.593,0.823c22.272,3.295,40.819,6.024,61.329,6.024
		c80.648,0,125.342-48.241,125.342-132.352v-14.988C947.286,547.113,937.452,529.661,921.486,529.661z"/>
	<path fill="#F7F7F7" d="M876.497,561.838v14.062c0,39.97-19.346,56.387-59.399,56.387c-17.17,0-32.202-2.143-50.086-4.993
		c-17.164-2.858-34.34-5.001-53.652-5.001c-2.812-0.045-5.181-0.007-7.832,0.103c2.413-1.19,5.039-2.291,7.562-3.204
		c44.559-16.057,81.362-14.558,111.977-5.31l-6.089-16.957c-26.282-8.031-63.723-13.135-112.31,4.086
		c-14.036,5.059-26.084,11.05-36.567,17.543c10.252-9.678,22.435-18.874,37.069-27.279c41.057-23.58,77.476-28.516,109.233-24.751
		l-9.009-15.625c-27.28-3.321-65.062-1.815-109.885,23.624c-31.566,18.129-50.839,39.637-63.164,59.592
		c-12.369-19.37-31.418-40.054-61.921-57.564c-44.823-25.438-82.605-26.945-109.885-23.624l-9.003,15.625
		c31.759-3.759,68.17,1.171,109.234,24.751c14.641,8.405,26.816,17.601,37.068,27.279c-10.483-6.5-22.543-12.491-36.58-17.543
		c-48.587-17.222-86.054-12.111-112.33-4.086l-6.132,16.957c30.613-9.248,67.326-10.741,111.885,5.31
		c0.914,0.327,1.802,0.733,2.697,1.1c-0.663,0-1.282-0.038-1.957-0.025c-19.313,0-36.476,2.143-54.354,5.001
		c-17.163,2.851-36.025,4.993-52.475,4.993c-38.619,0-63.202-14.273-63.202-56.387v-14.062h-32.177v16.204
		c0.013,60.667,26.018,103.494,91.82,103.494c20.027,0,38.394-2.851,58.42-5.708c20.027-2.851,39.578-5.097,59.605-5.097
		c25.034,0,52.455,6.943,52.455,58.427h36.476c0-51.483,30.756-58.427,52.925-58.427c19.312,0,38.619,2.549,57.932,5.405
		c19.313,2.858,39.366,5.561,58.678,5.561c72.237,0,98.019-44.404,98.019-103.648v-16.211H876.497z"/>
	<path fill="#F7F7F7" d="M916.789,312.37c-23.329-33.413-188.133-50.022-220.11-32.583c-31.978,17.434-39.282,37.505-47.692,50.377
		h-27.962c-8.412-12.872-15.729-32.943-47.706-50.377c-31.978-17.433-196.795-1.692-220.123,31.72l-0.477,36.379
		c13.128,4.093,21.591,10.593,22.093,18.187c0.508,7.594,9.447,83.004,34.809,110.341c35.672,37.854,115.271,41.502,148.748,19.229
		c59.856-42.518,45.653-120.49,74.818-120.49c0.367,0,0.695,0.078,1.049,0.103c3.043-0.019,1.441-0.077,1.808-0.077
		c29.172,0,15.342,77.997,75.204,120.515c33.478,22.273,113.27,18.683,148.941-19.171c25.361-27.338,34.391-102.638,34.905-110.232
		c0.509-7.594,9.01-13.875,22.144-17.968L916.789,312.37z M579.94,451.078c-24.809,38.67-36.521,42.017-80.147,43.536
		c-43.619,1.519-106.988-16.585-106.525-110.864c1.197-41.598,10.419-76.439,40.582-85.552c30.163-9.112,73.55-9.621,108.044-6.583
		c34.493,3.038,55.286,33.915,55.286,45.562C597.181,342.886,603.81,413.855,579.94,451.078z M770.222,494.614
		c-43.625-1.52-55.344-4.866-80.146-43.536c-23.875-37.223-17.247-108.192-17.247-113.9c0-11.642,20.799-42.525,55.287-45.562
		c34.493-3.038,77.881-2.529,108.043,6.583c30.163,9.113,39.385,43.954,40.582,85.552
		C877.211,478.029,813.842,496.133,770.222,494.614z"/>
</g>
</svg>
